<svg width="1248" height="938" viewBox="0 0 1248 938" fill="none" xmlns="http://www.w3.org/2000/svg">
<path d="M249.5 700L245 685V278L245.5 247L246.5 243L249.5 236.5L252 232.5L260.5 225L264.5 223L270 221.5L273.5 221H1012L1017.5 222L1021.5 223.5L1023.5 224.5L1026.5 226.5L1028.5 228L1033.5 233L1036.5 237.5L1038.5 241.5L1039 243L1040 248V277V687L1038.5 694.5L1034 702.5L1029 707.5L1020.5 712L1013 714H274.5L263 711.5L249.5 700Z" fill="black"/>
<path d="M246.5 247.127L246 278H1041V248.743V247.735L1040.5 245.212L1040 243.195L1039.5 241.681L1038.5 239.664L1037.5 237.646L1036.5 236.133L1035.5 234.619L1034.5 233.106L1033.5 232.097L1032.5 231.088L1031.5 230.08L1030.5 229.071L1029.5 228.062L1027.5 226.549L1026 225.54L1024.5 224.531L1022.5 223.522L1018.5 222.009L1012.5 221H274.5L270.5 221.504L268.5 222.009L265.5 223.018L263.5 224.027L261.5 225.035L259.5 226.549L255.5 230.08L253 232.602L250.5 236.133L247.5 243.195L246.5 247.127Z" fill="#7D7D7D" fill-opacity="0.7"/>
<g filter="url(#filter0_f_5_91)">
<ellipse cx="357.104" cy="314.371" rx="112.45" ry="53.2529" transform="rotate(-21.2383 357.104 314.371)" fill="#49860C"/>
</g>
<g filter="url(#filter1_f_5_91)">
<ellipse cx="891.104" cy="609.371" rx="112.45" ry="53.2529" transform="rotate(-21.2383 891.104 609.371)" fill="#49860C"/>
</g>
<g filter="url(#filter2_f_5_91)">
<path d="M497.714 630.192C493.93 637.35 486.75 642.591 476.72 645.518C466.69 648.444 454.073 648.98 439.83 647.083C425.587 645.186 410.091 640.907 394.522 634.57C378.953 628.234 363.719 620.008 349.98 610.517C336.241 601.026 324.357 590.52 315.233 579.798C306.109 569.076 299.985 558.421 297.325 548.641C294.666 538.862 295.541 530.216 299.885 523.361C304.23 516.507 311.928 511.624 322.395 509.083L398.302 577.635L497.714 630.192Z" fill="#49860C"/>
</g>
<g filter="url(#filter3_f_5_91)">
<ellipse cx="891.104" cy="314.371" rx="112.45" ry="53.2529" transform="rotate(-21.2383 891.104 314.371)" fill="#49860C"/>
</g>
<g filter="url(#filter4_f_5_91)">
<ellipse cx="628.104" cy="354.371" rx="112.45" ry="53.2529" transform="rotate(-21.2383 628.104 354.371)" fill="#49860C"/>
</g>
<g filter="url(#filter5_f_5_91)">
<ellipse cx="369.104" cy="510.371" rx="112.45" ry="53.2529" transform="rotate(-21.2383 369.104 510.371)" fill="#49860C"/>
</g>
<g filter="url(#filter6_f_5_91)">
<ellipse cx="628.104" cy="623.371" rx="112.45" ry="53.2529" transform="rotate(-21.2383 628.104 623.371)" fill="#49860C"/>
</g>
<path d="M638.2 356.867C635.933 358.2 632.867 361 631.4 363L628.733 366.733L623.133 364.6C620.067 363.267 615.133 362.333 612.067 362.333H606.6L611.667 366.733L616.733 371.133L611.267 370.6C604.733 369.933 594.467 373.133 589 377.533L585 380.733L591.4 380.067C598.6 379.267 599.4 380.733 593.667 384.067C591.533 385.4 588.2 388.733 586.2 391.4C582.6 396.333 582.333 396.467 577.533 395.133C570.6 393.267 564.333 396.333 560.867 403.267C556.867 411.533 557.4 427.533 562.067 437.533L565.667 445.4L561.133 452.2C558.733 455.933 555.4 462.467 553.8 466.733L551 474.6L556.6 469.8C562.6 464.733 567.933 462.867 563.933 467.4C558.867 472.867 553.267 493 555.533 496.867C556.067 497.533 559.133 495.267 562.467 491.933C566.067 488.2 568.2 486.733 567.667 488.333C567.133 489.8 566.467 495.8 566.067 501.667C565.667 507.533 564.733 513.4 564.067 514.867C562.733 517.267 562.867 517.267 567 514.867C569.267 513.4 572.333 510.333 573.933 507.933C575.4 505.667 576.6 503.667 576.733 503.667C576.867 503.667 577 507.133 577.133 511.267C577.133 521.133 579 533 580.467 533C581.133 533 582.867 530.467 584.467 527.4L587.4 521.667L588.6 525.8C589.133 528.067 591.8 533.533 594.333 537.8C596.867 542.067 599 546.867 599 548.733C599 552.733 601.4 551.4 603.8 545.8C604.733 543.533 605.533 542.6 605.667 543.8C605.667 545 608.733 549.8 612.467 554.467C616.2 559.133 619.933 564.733 620.733 567L622.2 571L623.667 565.667L625.267 560.467L630.867 570.2L636.6 579.933L641.8 571.133C644.733 566.333 647.533 562.067 648.2 561.8C648.867 561.4 649.8 563 650.2 565.4L651.133 569.667L652.867 565.667C653.8 563.4 656.867 559 659.533 555.8C662.333 552.6 665.533 548.067 666.733 545.8C668.733 542.067 669 541.933 669.4 544.467C669.667 546.067 671 548.467 672.467 549.8C674.867 552.067 675 551.933 675 548.6C675 546.733 677.667 539.8 681 533.4C684.333 527 687 522.867 687 524.067C687 525.267 688.867 528.2 691.133 530.6C693.4 533 694.867 534.067 694.6 532.733C694.2 531.533 694.6 525.933 695.667 520.333C696.6 514.733 697 508.867 696.6 507.4C696.067 505.267 697.533 506.2 701.933 510.733C705.133 514.2 708.6 517 709.667 517C710.867 517 710.867 516.467 709.933 515.267C709.267 514.467 708.2 509.4 707.8 504.333C707.267 499.133 706.6 493 706.2 490.467C705.533 486.2 705.667 485.933 707.8 487.8C709 488.867 711.933 492.067 714.067 495L717.933 500.333L717.4 490.333C717 483.267 715.8 478.2 713.267 473C711.4 469 709.933 465.667 710.2 465.4C710.333 465.133 713.133 466.867 716.2 469.267C721.933 473.4 721.933 473.4 721 470.2C719.4 464.6 712.867 451.133 710.2 447.8C707.533 444.733 707.533 444.733 710.6 438.467C718.733 422.2 715.8 398.733 705.267 395.133C702.867 394.2 699.8 394.333 696.333 395.267C691.133 396.6 690.867 396.467 688.333 392.2C686.733 389.8 683.267 386.067 680.6 383.8C676.6 380.467 676.2 379.8 678.333 379.667C679.8 379.667 683 380.2 685.533 381C689.933 382.2 689.933 382.2 687.533 379.533C683.267 374.867 675 371.4 665.8 370.467L657 369.667L662.333 365.933L667.667 362.067L659.533 362.6C655.133 362.867 649 364.333 645.933 365.933L640.333 368.6V364.067C640.333 361.533 641 358.333 641.667 356.867C643.4 353.8 643.267 353.8 638.2 356.867ZM579.533 402.6C583.667 404.333 585.133 408.333 582.867 411.133C581.4 412.867 580.733 412.6 577.933 409L574.6 404.867L570.867 408.467C566.6 412.6 565.533 416.067 569.667 412.333C574.733 407.667 578.867 415.8 574.333 421.8C572.067 424.867 571.667 435.667 573.933 435.667C574.733 435.667 574.333 436.867 573 438.333C569.667 442.067 568.733 441.8 565.4 435.267C563.267 431.133 562.467 427.4 562.6 421C562.6 405.133 569.267 397.8 579.533 402.6ZM707.267 405.933C711.267 412.6 711.533 427 707.8 435.4C705 441.533 704.733 441.667 701.4 439.133C699.4 437.667 699.267 436.733 700.6 433C701.933 429.133 701.667 427.8 699 422.733C696.467 417.933 696.2 416.333 697.4 413.667C699.267 409.533 700.733 409.533 704.467 413.267L707.267 416.333L705.133 412.067C703.933 409.667 701.8 407.133 700.333 406.333C698.2 405.133 697.267 405.667 694.867 409L691.933 413L689.933 410.067C688.067 407.4 688.2 407 691.533 404.067C693.8 402.2 696.867 401 699.667 401C703.4 401 704.6 401.8 707.267 405.933ZM635.933 411.933C636.867 412.6 637.8 412.6 638.333 411.667C638.733 411 640.067 410.333 641.133 410.333C642.867 410.333 642.733 411 640.733 414.333C637.8 419.267 635.933 419.4 633.8 414.733C632.467 411.8 631.933 411.533 630.867 413.133C630.2 414.067 629.667 416.067 629.667 417.267C629.667 418.867 628.6 419.667 626.733 419.667C624.2 419.667 624.067 419.4 625.667 418.333C627.267 417.267 627.133 417 624.733 417C620.067 417 617.667 415.533 617.667 412.867C617.667 410.6 618.6 410.333 626.067 410.467C630.6 410.6 635 411.267 635.933 411.933ZM657.133 411.933C658.333 413.933 654.067 417 649.933 417C648.2 417 647.133 417.533 647.533 418.2C647.933 418.867 647.4 419.667 646.333 420.2C644.733 420.733 644.333 419.8 644.333 415.667V410.333H650.2C653.533 410.333 656.6 411 657.133 411.933ZM620.333 419.133C628.2 423 643.933 423.267 651 419.667C659.8 415.267 666.467 414.067 671.267 416.067C679.667 419.667 684.467 427.8 681.533 433.267C680.6 435 679.933 438.733 680.2 441.667C680.467 448.2 676.6 455.133 671.4 457.133C669.267 457.933 666.733 459.133 665.4 459.8C663.933 460.467 663 460.2 662.467 459C662.2 458.067 662.467 456.867 663.4 456.467C664.333 456.2 663.667 455.8 662.067 455.8C660.467 455.667 659 455 658.733 454.333C658.467 453.533 656.467 452.733 654.333 452.333C648.067 451.4 641.8 449.267 645.133 449.133C646.6 449 648.333 448.467 649.133 447.667C649.933 446.867 652.067 446.867 655 447.667C663.133 449.933 670.2 446.6 671.667 439.533C672.2 437.4 673.8 434.733 675.4 433.667C678.333 431.533 678.333 431.533 675.8 429.667C671.4 426.333 664.867 427.267 655.133 432.6C646.2 437.533 646.067 437.533 642.467 435.267C640.467 433.933 638.6 431.133 638.067 429C637.133 424.2 635.667 424.867 634.6 430.333C634.067 432.867 632.467 434.867 630.467 435.8C627.667 437.133 625.8 436.6 617.8 432.467C607.933 427.4 603 426.6 597.933 429.4L594.867 431.133L598.333 434.333C600.2 436.067 601.667 438.467 601.667 439.667C601.667 445.533 611.4 450.333 618.067 447.8C620.6 446.867 622.733 446.867 625.8 448.2L629.933 449.933L626.333 450.867C624.067 451.4 621.933 451.133 620.6 450.067C619.4 449.133 618.867 449 619.4 449.8C619.8 450.6 617.8 452.467 614.6 454.067C611.533 455.667 609.8 457 610.867 457C612.2 457 612.333 457.4 611.133 458.867C609.8 460.467 608.867 460.333 604.6 458.333C595.933 454.067 593.133 449.933 593.267 441.667C593.4 437.667 592.867 434.067 592.2 433.667C590.067 432.2 590.867 426.867 594.067 422.2C599.533 414.067 608.333 413.133 620.333 419.133ZM609.4 443.267C610.6 444.2 610.867 445 609.933 445C607.533 445 603.933 438.733 605.267 436.733C606.067 435.533 606.467 435.933 606.733 438.333C607 440.2 608.2 442.467 609.4 443.267ZM617.667 438.333C624.467 441.8 625.533 443.667 620.467 443.667C616.467 443.667 611 439.8 611 437C611 435.133 611.667 435.267 617.667 438.333ZM661.667 437.533C661.667 440.733 657.8 443.667 653.533 443.667C648.067 443.667 648.733 441.8 655.4 438.467C662.067 435.133 661.667 435.133 661.667 437.533ZM667 442.2C664.6 446.867 663.133 445.267 665.533 440.467C666.733 438.067 667.8 436.867 668.067 437.8C668.333 438.733 667.8 440.733 667 442.2ZM630.867 456.467C632.6 457.667 634.733 460.6 635.8 462.867C637.133 465.933 637.533 466.333 637.667 464.333C637.8 458.733 644.733 453.667 650.333 455.133C655.533 456.467 663 465.533 663 470.733C663 473 662.467 475.8 661.8 476.867C660.867 478.2 661.533 480.2 663.933 483.133C668.067 488.6 671 498.2 671 506.2L670.867 512.333L669 507.933C666.867 502.867 665.267 502.2 666.467 506.867C666.867 508.6 666.467 511.4 665.667 513C664.333 515.667 663.267 515.933 657.933 515.267C654.467 514.867 648.2 513.8 644.067 512.867C637.667 511.4 635 511.4 628.067 513C623.4 514.067 617 514.867 613.667 515H607.667V508.6C607.667 505.133 607.533 502.333 607.267 502.333C607 502.333 606.067 504.333 605 506.6L603.133 511L603 503.4C603 494.867 604.333 490.467 609 483.667C611.933 479.533 612.067 478.333 610.733 474.867C609.533 471.4 609.667 469.933 611.8 465.533C614.333 460.2 621.667 454.333 625.533 454.333C626.733 454.333 629.133 455.267 630.867 456.467ZM658.067 517.533C662.2 517.667 665.667 518.067 665.667 518.6C665.667 520.333 651.533 532.067 647.4 533.8C641.533 536.333 630.467 536.2 625.267 533.533C621.133 531.4 609.933 521.933 608.067 519.133C607.533 518.2 609.133 517.8 612.733 518.067C615.8 518.2 621 517.8 624.333 517.133C627.667 516.333 634.867 516.2 640.333 516.6C645.8 517 653.8 517.533 658.067 517.533Z" fill="black"/>
<path d="M622.733 413.933C623.533 414.2 625.133 414.2 626.067 413.933C626.867 413.533 626.2 413.267 624.333 413.267C622.467 413.267 621.8 413.533 622.733 413.933Z" fill="black"/>
<path d="M649.4 413.933C650.2 414.2 651.8 414.2 652.733 413.933C653.533 413.533 652.867 413.267 651 413.267C649.133 413.267 648.467 413.533 649.4 413.933Z" fill="black"/>
<path d="M649.133 448.867C648.067 450.467 651.533 451.667 653.533 450.333C654.867 449.667 654.6 449.133 653 448.467C650.2 447.4 649.933 447.4 649.133 448.867Z" fill="black"/>
<path d="M610.733 451.267C612.333 451.533 614.733 451.533 616.067 451.267C617.267 450.867 615.933 450.6 613 450.733C610.067 450.733 609 451 610.733 451.267Z" fill="black"/>
<path d="M658.733 451.267C660.333 451.533 662.733 451.533 664.067 451.267C665.267 450.867 663.933 450.6 661 450.733C658.067 450.733 657 451 658.733 451.267Z" fill="black"/>
<path d="M619.4 471.133C618.2 474.333 620.6 477.4 625.4 478.6C627.667 479.267 630.867 481.4 632.467 483.4L635.4 487L634.6 481.667C633.267 472.867 621.8 465 619.4 471.133Z" fill="black"/>
<path d="M643.267 473.4C640.467 476.333 639 479.133 639 481.667V485.533L641.8 482.467C643.267 480.867 646.333 479.267 648.467 478.733C652.867 477.933 655.4 474.333 654.2 471.133C652.867 467.667 647.8 468.733 643.267 473.4Z" fill="black"/>
<defs>
<filter id="filter0_f_5_91" x="0.511597" y="0.158051" width="713.184" height="628.426" filterUnits="userSpaceOnUse" color-interpolation-filters="sRGB">
<feFlood flood-opacity="0" result="BackgroundImageFix"/>
<feBlend mode="normal" in="SourceGraphic" in2="BackgroundImageFix" result="shape"/>
<feGaussianBlur stdDeviation="125" result="effect1_foregroundBlur_5_91"/>
</filter>
<filter id="filter1_f_5_91" x="534.512" y="295.158" width="713.184" height="628.426" filterUnits="userSpaceOnUse" color-interpolation-filters="sRGB">
<feFlood flood-opacity="0" result="BackgroundImageFix"/>
<feBlend mode="normal" in="SourceGraphic" in2="BackgroundImageFix" result="shape"/>
<feGaussianBlur stdDeviation="125" result="effect1_foregroundBlur_5_91"/>
</filter>
<filter id="filter2_f_5_91" x="45.8209" y="259.083" width="701.893" height="639.112" filterUnits="userSpaceOnUse" color-interpolation-filters="sRGB">
<feFlood flood-opacity="0" result="BackgroundImageFix"/>
<feBlend mode="normal" in="SourceGraphic" in2="BackgroundImageFix" result="shape"/>
<feGaussianBlur stdDeviation="125" result="effect1_foregroundBlur_5_91"/>
</filter>
<filter id="filter3_f_5_91" x="534.512" y="0.158051" width="713.184" height="628.426" filterUnits="userSpaceOnUse" color-interpolation-filters="sRGB">
<feFlood flood-opacity="0" result="BackgroundImageFix"/>
<feBlend mode="normal" in="SourceGraphic" in2="BackgroundImageFix" result="shape"/>
<feGaussianBlur stdDeviation="125" result="effect1_foregroundBlur_5_91"/>
</filter>
<filter id="filter4_f_5_91" x="271.512" y="40.1581" width="713.184" height="628.426" filterUnits="userSpaceOnUse" color-interpolation-filters="sRGB">
<feFlood flood-opacity="0" result="BackgroundImageFix"/>
<feBlend mode="normal" in="SourceGraphic" in2="BackgroundImageFix" result="shape"/>
<feGaussianBlur stdDeviation="125" result="effect1_foregroundBlur_5_91"/>
</filter>
<filter id="filter5_f_5_91" x="12.5116" y="196.158" width="713.184" height="628.426" filterUnits="userSpaceOnUse" color-interpolation-filters="sRGB">
<feFlood flood-opacity="0" result="BackgroundImageFix"/>
<feBlend mode="normal" in="SourceGraphic" in2="BackgroundImageFix" result="shape"/>
<feGaussianBlur stdDeviation="125" result="effect1_foregroundBlur_5_91"/>
</filter>
<filter id="filter6_f_5_91" x="271.512" y="309.158" width="713.184" height="628.426" filterUnits="userSpaceOnUse" color-interpolation-filters="sRGB">
<feFlood flood-opacity="0" result="BackgroundImageFix"/>
<feBlend mode="normal" in="SourceGraphic" in2="BackgroundImageFix" result="shape"/>
<feGaussianBlur stdDeviation="125" result="effect1_foregroundBlur_5_91"/>
</filter>
</defs>
</svg>
